<mxfile host="65bd71144e">
    <diagram id="NUrl7HOWUls8WU3J8Ah8" name="Page-1">
        <mxGraphModel dx="2837" dy="2373" grid="1" gridSize="10" guides="1" tooltips="1" connect="1" arrows="1" fold="1" page="1" pageScale="1" pageWidth="850" pageHeight="1100" math="0" shadow="0">
            <root>
                <mxCell id="0"/>
                <mxCell id="1" parent="0"/>
                <mxCell id="86" value="menu" style="rounded=0;whiteSpace=wrap;html=1;" vertex="1" parent="1">
                    <mxGeometry x="-790" y="-870" width="120" height="60" as="geometry"/>
                </mxCell>
                <mxCell id="87" value="function&lt;br&gt;(idea/abstract)" style="rounded=0;whiteSpace=wrap;html=1;dashed=1;" vertex="1" parent="1">
                    <mxGeometry x="-380" y="-870" width="120" height="60" as="geometry"/>
                </mxCell>
                <mxCell id="88" value="" style="curved=1;endArrow=classic;html=1;shadow=0;dashed=1;entryX=0;entryY=0.5;entryDx=0;entryDy=0;exitX=1;exitY=0.5;exitDx=0;exitDy=0;" edge="1" parent="1" source="86" target="87">
                    <mxGeometry width="50" height="50" relative="1" as="geometry">
                        <mxPoint x="-500" y="-910" as="sourcePoint"/>
                        <mxPoint x="-680" y="-955" as="targetPoint"/>
                        <Array as="points">
                            <mxPoint x="-550" y="-880"/>
                        </Array>
                    </mxGeometry>
                </mxCell>
                <mxCell id="89" value="behaves like" style="edgeLabel;html=1;align=center;verticalAlign=middle;resizable=0;points=[];" vertex="1" connectable="0" parent="88">
                    <mxGeometry x="0.076" y="-3" relative="1" as="geometry">
                        <mxPoint as="offset"/>
                    </mxGeometry>
                </mxCell>
                <mxCell id="90" value="addTravels" style="rounded=0;whiteSpace=wrap;html=1;" vertex="1" parent="1">
                    <mxGeometry x="-580" y="-690" width="120" height="60" as="geometry"/>
                </mxCell>
                <mxCell id="91" value="addMovies" style="rounded=0;whiteSpace=wrap;html=1;" vertex="1" parent="1">
                    <mxGeometry x="-320" y="-690" width="120" height="60" as="geometry"/>
                </mxCell>
                <mxCell id="92" value="listMovies" style="rounded=0;whiteSpace=wrap;html=1;" vertex="1" parent="1">
                    <mxGeometry x="-190" y="-690" width="120" height="60" as="geometry"/>
                </mxCell>
                <mxCell id="93" value="listTravels" style="rounded=0;whiteSpace=wrap;html=1;" vertex="1" parent="1">
                    <mxGeometry x="-450" y="-690" width="120" height="60" as="geometry"/>
                </mxCell>
                <mxCell id="94" value="" style="curved=1;endArrow=classic;html=1;shadow=0;dashed=1;entryX=0.052;entryY=1.008;entryDx=0;entryDy=0;exitX=0.5;exitY=0;exitDx=0;exitDy=0;entryPerimeter=0;" edge="1" parent="1" source="90" target="87">
                    <mxGeometry width="50" height="50" relative="1" as="geometry">
                        <mxPoint x="-525" y="-740" as="sourcePoint"/>
                        <mxPoint x="-235" y="-740" as="targetPoint"/>
                        <Array as="points">
                            <mxPoint x="-405" y="-780"/>
                        </Array>
                    </mxGeometry>
                </mxCell>
                <mxCell id="95" value="behaves like" style="edgeLabel;html=1;align=center;verticalAlign=middle;resizable=0;points=[];" vertex="1" connectable="0" parent="94">
                    <mxGeometry x="0.076" y="-3" relative="1" as="geometry">
                        <mxPoint as="offset"/>
                    </mxGeometry>
                </mxCell>
                <mxCell id="96" value="" style="curved=1;endArrow=classic;html=1;shadow=0;dashed=1;entryX=0.25;entryY=1;entryDx=0;entryDy=0;exitX=0.456;exitY=-0.011;exitDx=0;exitDy=0;exitPerimeter=0;" edge="1" parent="1" source="93" target="87">
                    <mxGeometry width="50" height="50" relative="1" as="geometry">
                        <mxPoint x="-340" y="-690" as="sourcePoint"/>
                        <mxPoint x="-223.7600000000001" y="-809.52" as="targetPoint"/>
                        <Array as="points">
                            <mxPoint x="-350" y="-750"/>
                        </Array>
                    </mxGeometry>
                </mxCell>
                <mxCell id="97" value="behaves like" style="edgeLabel;html=1;align=center;verticalAlign=middle;resizable=0;points=[];" vertex="1" connectable="0" parent="96">
                    <mxGeometry x="0.076" y="-3" relative="1" as="geometry">
                        <mxPoint as="offset"/>
                    </mxGeometry>
                </mxCell>
                <mxCell id="98" value="" style="curved=1;endArrow=classic;html=1;shadow=0;dashed=1;entryX=0.571;entryY=0.999;entryDx=0;entryDy=0;exitX=0.5;exitY=0;exitDx=0;exitDy=0;entryPerimeter=0;" edge="1" parent="1" source="91" target="87">
                    <mxGeometry width="50" height="50" relative="1" as="geometry">
                        <mxPoint x="-280.28" y="-690.6599999999999" as="sourcePoint"/>
                        <mxPoint x="-235" y="-810" as="targetPoint"/>
                        <Array as="points">
                            <mxPoint x="-290" y="-750"/>
                        </Array>
                    </mxGeometry>
                </mxCell>
                <mxCell id="99" value="behaves like" style="edgeLabel;html=1;align=center;verticalAlign=middle;resizable=0;points=[];" vertex="1" connectable="0" parent="98">
                    <mxGeometry x="0.076" y="-3" relative="1" as="geometry">
                        <mxPoint as="offset"/>
                    </mxGeometry>
                </mxCell>
                <mxCell id="100" value="" style="curved=1;endArrow=classic;html=1;shadow=0;dashed=1;entryX=0.794;entryY=0.989;entryDx=0;entryDy=0;exitX=0.5;exitY=0;exitDx=0;exitDy=0;entryPerimeter=0;" edge="1" parent="1" source="92" target="87">
                    <mxGeometry width="50" height="50" relative="1" as="geometry">
                        <mxPoint x="-144.26" y="-699.94" as="sourcePoint"/>
                        <mxPoint x="-195.74" y="-820" as="targetPoint"/>
                        <Array as="points">
                            <mxPoint x="-220" y="-740"/>
                        </Array>
                    </mxGeometry>
                </mxCell>
                <mxCell id="101" value="behaves like" style="edgeLabel;html=1;align=center;verticalAlign=middle;resizable=0;points=[];" vertex="1" connectable="0" parent="100">
                    <mxGeometry x="0.076" y="-3" relative="1" as="geometry">
                        <mxPoint as="offset"/>
                    </mxGeometry>
                </mxCell>
                <mxCell id="103" style="edgeStyle=none;html=1;curved=1;exitX=0.878;exitY=1.027;exitDx=0;exitDy=0;exitPerimeter=0;entryX=0.338;entryY=1.026;entryDx=0;entryDy=0;entryPerimeter=0;" edge="1" parent="1" source="86" target="90">
                    <mxGeometry relative="1" as="geometry">
                        <mxPoint x="-590" y="-530" as="targetPoint"/>
                        <Array as="points">
                            <mxPoint x="-690" y="-650"/>
                            <mxPoint x="-600" y="-590"/>
                        </Array>
                        <mxPoint x="-680" y="-720" as="sourcePoint"/>
                    </mxGeometry>
                </mxCell>
                <mxCell id="104" value="executes" style="edgeLabel;html=1;align=center;verticalAlign=middle;resizable=0;points=[];" vertex="1" connectable="0" parent="103">
                    <mxGeometry x="-0.1394" y="-1" relative="1" as="geometry">
                        <mxPoint as="offset"/>
                    </mxGeometry>
                </mxCell>
                <mxCell id="107" style="edgeStyle=none;html=1;curved=1;exitX=0.636;exitY=0.993;exitDx=0;exitDy=0;exitPerimeter=0;entryX=0.5;entryY=1;entryDx=0;entryDy=0;" edge="1" parent="1" source="86" target="93">
                    <mxGeometry relative="1" as="geometry">
                        <mxPoint x="-634.7199999999998" y="-540.0600000000001" as="targetPoint"/>
                        <Array as="points">
                            <mxPoint x="-740" y="-610"/>
                            <mxPoint x="-590" y="-520"/>
                        </Array>
                        <mxPoint x="-779.9199999999998" y="-720.0000000000001" as="sourcePoint"/>
                    </mxGeometry>
                </mxCell>
                <mxCell id="108" value="executes" style="edgeLabel;html=1;align=center;verticalAlign=middle;resizable=0;points=[];" vertex="1" connectable="0" parent="107">
                    <mxGeometry x="-0.1394" y="-1" relative="1" as="geometry">
                        <mxPoint as="offset"/>
                    </mxGeometry>
                </mxCell>
                <mxCell id="109" style="edgeStyle=none;html=1;curved=1;exitX=0.378;exitY=0.993;exitDx=0;exitDy=0;exitPerimeter=0;entryX=0.5;entryY=1;entryDx=0;entryDy=0;" edge="1" parent="1" source="86" target="91">
                    <mxGeometry relative="1" as="geometry">
                        <mxPoint x="-450" y="-559.5799999999999" as="targetPoint"/>
                        <Array as="points">
                            <mxPoint x="-780" y="-510"/>
                            <mxPoint x="-440" y="-470"/>
                        </Array>
                        <mxPoint x="-773.6799999999998" y="-739.9999999999998" as="sourcePoint"/>
                    </mxGeometry>
                </mxCell>
                <mxCell id="110" value="executes" style="edgeLabel;html=1;align=center;verticalAlign=middle;resizable=0;points=[];" vertex="1" connectable="0" parent="109">
                    <mxGeometry x="-0.1394" y="-1" relative="1" as="geometry">
                        <mxPoint as="offset"/>
                    </mxGeometry>
                </mxCell>
                <mxCell id="111" style="edgeStyle=none;html=1;curved=1;exitX=0.153;exitY=1.01;exitDx=0;exitDy=0;exitPerimeter=0;entryX=0.5;entryY=1;entryDx=0;entryDy=0;" edge="1" parent="1" source="86" target="92">
                    <mxGeometry relative="1" as="geometry">
                        <mxPoint x="-240" y="-519.5799999999999" as="targetPoint"/>
                        <Array as="points">
                            <mxPoint x="-810" y="-400"/>
                            <mxPoint x="-390" y="-440"/>
                        </Array>
                        <mxPoint x="-724.6399999999999" y="-699.9999999999998" as="sourcePoint"/>
                    </mxGeometry>
                </mxCell>
                <mxCell id="112" value="executes" style="edgeLabel;html=1;align=center;verticalAlign=middle;resizable=0;points=[];" vertex="1" connectable="0" parent="111">
                    <mxGeometry x="-0.1394" y="-1" relative="1" as="geometry">
                        <mxPoint as="offset"/>
                    </mxGeometry>
                </mxCell>
            </root>
        </mxGraphModel>
    </diagram>
</mxfile>